<?xml version="1.0" encoding="UTF-8" standalone="no"?>
<svg
   xmlns:dc="http://purl.org/dc/elements/1.1/"
   xmlns:cc="http://creativecommons.org/ns#"
   xmlns:rdf="http://www.w3.org/1999/02/22-rdf-syntax-ns#"
   xmlns:svg="http://www.w3.org/2000/svg"
   xmlns="http://www.w3.org/2000/svg"
   xmlns:sodipodi="http://sodipodi.sourceforge.net/DTD/sodipodi-0.dtd"
   xmlns:inkscape="http://www.inkscape.org/namespaces/inkscape"
   width="505.33536"
   height="648.98969"
   viewBox="63 139 274.53747 358.99224"
   id="svg2"
   version="1.1"
   inkscape:version="0.47 r22583"
   sodipodi:docname="w0_3d_full.dia">
  <metadata
     id="metadata430">
    <rdf:RDF>
      <cc:Work
         rdf:about="">
        <dc:format>image/svg+xml</dc:format>
        <dc:type
           rdf:resource="http://purl.org/dc/dcmitype/StillImage" />
        <dc:title></dc:title>
      </cc:Work>
    </rdf:RDF>
  </metadata>
  <defs
     id="defs428">
    <inkscape:perspective
       sodipodi:type="inkscape:persp3d"
       inkscape:vp_x="0 : 354.33072 : 1"
       inkscape:vp_y="0 : 1000 : 0"
       inkscape:vp_z="566.92914 : 354.33072 : 1"
       inkscape:persp3d-origin="283.46457 : 236.22048 : 1"
       id="perspective432" />
  </defs>
  <sodipodi:namedview
     pagecolor="#ffffff"
     bordercolor="#666666"
     borderopacity="1"
     objecttolerance="10"
     gridtolerance="10"
     guidetolerance="10"
     inkscape:pageopacity="0"
     inkscape:pageshadow="2"
     inkscape:window-width="640"
     inkscape:window-height="497"
     id="namedview426"
     showgrid="false"
     inkscape:zoom="0.33302221"
     inkscape:cx="249.71558"
     inkscape:cy="322.8553"
     inkscape:window-x="0"
     inkscape:window-y="25"
     inkscape:window-maximized="0"
     inkscape:current-layer="svg2" />
  <g
     id="g4"
     transform="translate(-18.668443,-18.919006)">
    <rect
       style="fill:#ffffff"
       x="102"
       y="202"
       width="97"
       height="97"
       id="rect6" />
    <rect
       style="fill:none;stroke:#000000;stroke-width:2"
       x="102"
       y="202"
       width="97"
       height="97"
       id="rect8" />
  </g>
  <g
     id="g10"
     transform="translate(-18.668443,-18.919006)">
    <rect
       style="fill:#ffffff"
       x="102.05"
       y="298.79999"
       width="97"
       height="97"
       id="rect12" />
    <rect
       style="fill:none;stroke:#000000;stroke-width:2"
       x="102.05"
       y="298.79999"
       width="97"
       height="97"
       id="rect14" />
  </g>
  <g
     id="g16"
     transform="translate(-18.668443,-18.919006)">
    <rect
       style="fill:#ffffff"
       x="198.60001"
       y="202.10001"
       width="97"
       height="97"
       id="rect18" />
    <rect
       style="fill:none;stroke:#000000;stroke-width:2"
       x="198.60001"
       y="202.10001"
       width="97"
       height="97"
       id="rect20" />
  </g>
  <g
     id="g22"
     transform="translate(-18.668443,-18.919006)">
    <rect
       style="fill:#ffffff"
       x="198.64999"
       y="298.89999"
       width="97"
       height="97"
       id="rect24" />
    <rect
       style="fill:none;stroke:#000000;stroke-width:2"
       x="198.64999"
       y="298.89999"
       width="97"
       height="97"
       id="rect26" />
  </g>
  <g
     id="g28"
     transform="translate(-18.668443,-18.919006)">
    <rect
       style="fill:#ffffff"
       x="102.2"
       y="395.95001"
       width="97"
       height="97"
       id="rect30" />
    <rect
       style="fill:none;stroke:#000000;stroke-width:2"
       x="102.2"
       y="395.95001"
       width="97"
       height="97"
       id="rect32" />
  </g>
  <g
     id="g34"
     transform="translate(-18.668443,-18.919006)">
    <rect
       style="fill:#ffffff"
       x="198.5"
       y="396"
       width="97"
       height="97"
       id="rect36" />
    <rect
       style="fill:none;stroke:#000000;stroke-width:2"
       x="198.5"
       y="396"
       width="97"
       height="97"
       id="rect38" />
  </g>
  <g
     id="g40"
     transform="translate(-18.668443,-18.919006)">
    <polygon
       style="fill:#ffffff"
       points="295.87,396.112 296.12,299.112 330.87,275.112 331.12,372.112 "
       id="polygon42" />
    <polygon
       style="fill:none;stroke:#000000;stroke-width:2"
       points="295.87,396.112 296.12,299.112 330.87,275.112 331.12,372.112 "
       id="polygon44" />
  </g>
  <g
     id="g46"
     transform="translate(-18.668443,-18.919006)">
    <polygon
       style="fill:#ffffff"
       points="295.824,492.84 296.074,395.84 330.824,371.84 331.074,468.84 "
       id="polygon48" />
    <polygon
       style="fill:none;stroke:#000000;stroke-width:2"
       points="295.824,492.84 296.074,395.84 330.824,371.84 331.074,468.84 "
       id="polygon50" />
  </g>
  <g
     id="g52"
     transform="translate(-18.668443,-18.919006)">
    <polygon
       style="fill:#ffffff"
       points="295.774,299.166 296.024,202.166 330.774,178.165 331.024,275.166 "
       id="polygon54" />
    <polygon
       style="fill:none;stroke:#000000;stroke-width:2"
       points="295.774,299.166 296.024,202.166 330.774,178.165 331.024,275.166 "
       id="polygon56" />
  </g>
  <g
     id="g58"
     transform="translate(-18.668443,-18.919006)">
    <polygon
       style="fill:#ffffff"
       points="295.37,201.738 199.12,201.488 231.62,178.488 329.37,178.238 "
       id="polygon60" />
    <polygon
       style="fill:none;stroke:#000000;stroke-width:2"
       points="295.37,201.738 199.12,201.488 231.62,178.488 329.37,178.238 "
       id="polygon62" />
  </g>
  <g
     id="g64"
     transform="translate(-18.668443,-18.919006)">
    <polygon
       style="fill:#ffffff"
       points="197.453,201.82 101.203,201.57 133.703,178.571 231.452,178.321 "
       id="polygon66" />
    <polygon
       style="fill:none;stroke:#000000;stroke-width:2"
       points="197.453,201.82 101.203,201.57 133.703,178.571 231.452,178.321 "
       id="polygon68" />
  </g>
  <text
     style="font-size:12.80000019px;font-style:normal;font-weight:normal;text-anchor:start;fill:#000000;font-family:sanserif"
     x="68.651558"
     y="466.30298"
     id="text70">
    <tspan
       x="68.651558"
       y="466.30298"
       id="tspan72">1</tspan>
  </text>
  <text
     style="font-size:12.80000019px;font-style:normal;font-weight:normal;text-anchor:start;fill:#000000;font-family:sanserif"
     x="69.901558"
     y="370.15298"
     id="text74">
    <tspan
       x="69.901558"
       y="370.15298"
       id="tspan76">2</tspan>
  </text>
  <text
     style="font-size:12.80000019px;font-style:normal;font-weight:normal;text-anchor:start;fill:#000000;font-family:sanserif"
     x="68.151558"
     y="275.603"
     id="text78">
    <tspan
       x="68.151558"
       y="275.603"
       id="tspan80">3</tspan>
  </text>
  <text
     style="font-size:12.80000019px;font-style:normal;font-weight:normal;text-anchor:start;fill:#000000;font-family:sanserif"
     x="66.401558"
     y="185.55299"
     id="text82">
    <tspan
       x="66.401558"
       y="185.55299"
       id="tspan84">4</tspan>
  </text>
  <ellipse
     style="fill:#000000"
     cx="134.82001"
     cy="178.72099"
     rx="3.75"
     ry="3.75"
     id="ellipse86"
     sodipodi:cx="134.82001"
     sodipodi:cy="178.72099"
     sodipodi:rx="3.75"
     sodipodi:ry="3.75"
     transform="translate(-18.668443,-18.919006)" />
  <g
     id="g88"
     transform="translate(-18.668443,-18.919006)">
    <ellipse
       style="fill:#000000"
       cx="102.777"
       cy="492.37799"
       rx="3.75"
       ry="3.75"
       id="ellipse90"
       sodipodi:cx="102.777"
       sodipodi:cy="492.37799"
       sodipodi:rx="3.75"
       sodipodi:ry="3.75"
       d="m 106.527,492.37799 c 0,2.07107 -1.67893,3.75 -3.75,3.75 -2.07107,0 -3.75,-1.67893 -3.75,-3.75 0,-2.07107 1.67893,-3.75 3.75,-3.75 2.07107,0 3.75,1.67893 3.75,3.75 z" />
    <ellipse
       style="fill:#000000"
       cx="103.027"
       cy="441.328"
       rx="3.75"
       ry="3.75"
       id="ellipse92"
       sodipodi:cx="103.027"
       sodipodi:cy="441.328"
       sodipodi:rx="3.75"
       sodipodi:ry="3.75"
       d="m 106.777,441.328 c 0,2.07107 -1.67893,3.75 -3.75,3.75 -2.07107,0 -3.75,-1.67893 -3.75,-3.75 0,-2.07106 1.67893,-3.75 3.75,-3.75 2.07107,0 3.75,1.67894 3.75,3.75 z" />
    <ellipse
       style="fill:#000000"
       cx="102.777"
       cy="394.77802"
       rx="3.75"
       ry="3.75"
       id="ellipse94"
       sodipodi:cx="102.777"
       sodipodi:cy="394.77802"
       sodipodi:rx="3.75"
       sodipodi:ry="3.75"
       d="m 106.527,394.77802 c 0,2.07106 -1.67893,3.75 -3.75,3.75 -2.07107,0 -3.75,-1.67894 -3.75,-3.75 0,-2.07107 1.67893,-3.75 3.75,-3.75 2.07107,0 3.75,1.67893 3.75,3.75 z" />
    <ellipse
       style="fill:#000000"
       cx="102.027"
       cy="343.228"
       rx="3.75"
       ry="3.75"
       id="ellipse96"
       sodipodi:cx="102.027"
       sodipodi:cy="343.228"
       sodipodi:rx="3.75"
       sodipodi:ry="3.75"
       d="m 105.777,343.228 c 0,2.07106 -1.67893,3.75 -3.75,3.75 -2.071067,0 -3.75,-1.67894 -3.75,-3.75 0,-2.07107 1.678933,-3.75 3.75,-3.75 2.07107,0 3.75,1.67893 3.75,3.75 z" />
    <ellipse
       style="fill:#000000"
       cx="101.777"
       cy="298.67801"
       rx="3.75"
       ry="3.75"
       id="ellipse98"
       sodipodi:cx="101.777"
       sodipodi:cy="298.67801"
       sodipodi:rx="3.75"
       sodipodi:ry="3.75"
       d="m 105.527,298.67801 c 0,2.07107 -1.67893,3.75 -3.75,3.75 -2.071067,0 -3.75,-1.67893 -3.75,-3.75 0,-2.07107 1.678933,-3.75 3.75,-3.75 2.07107,0 3.75,1.67893 3.75,3.75 z" />
    <ellipse
       style="fill:#000000"
       cx="101.527"
       cy="250.62801"
       rx="3.75"
       ry="3.75"
       id="ellipse100"
       sodipodi:cx="101.527"
       sodipodi:cy="250.62801"
       sodipodi:rx="3.75"
       sodipodi:ry="3.75"
       d="m 105.277,250.62801 c 0,2.07106 -1.67893,3.75 -3.75,3.75 -2.071067,0 -3.75,-1.67894 -3.75,-3.75 0,-2.07107 1.678933,-3.75 3.75,-3.75 2.07107,0 3.75,1.67893 3.75,3.75 z" />
    <ellipse
       style="fill:#000000"
       cx="102.277"
       cy="202.078"
       rx="3.75"
       ry="3.75"
       id="ellipse102"
       sodipodi:cx="102.277"
       sodipodi:cy="202.078"
       sodipodi:rx="3.75"
       sodipodi:ry="3.75"
       d="m 106.027,202.078 c 0,2.07107 -1.67893,3.75 -3.75,3.75 -2.07107,0 -3.75,-1.67893 -3.75,-3.75 0,-2.07106 1.67893,-3.75 3.75,-3.75 2.07107,0 3.75,1.67894 3.75,3.75 z" />
  </g>
  <g
     id="g104"
     transform="translate(-18.668443,-18.919006)">
    <ellipse
       style="fill:#000000"
       cx="199.52699"
       cy="492.17801"
       rx="3.75"
       ry="3.75"
       id="ellipse106"
       sodipodi:cx="199.52699"
       sodipodi:cy="492.17801"
       sodipodi:rx="3.75"
       sodipodi:ry="3.75"
       d="m 203.27699,492.17801 c 0,2.07107 -1.67893,3.75 -3.75,3.75 -2.07107,0 -3.75,-1.67893 -3.75,-3.75 0,-2.07107 1.67893,-3.75 3.75,-3.75 2.07107,0 3.75,1.67893 3.75,3.75 z" />
    <ellipse
       style="fill:#000000"
       cx="199.77699"
       cy="441.12799"
       rx="3.75"
       ry="3.75"
       id="ellipse108"
       sodipodi:cx="199.77699"
       sodipodi:cy="441.12799"
       sodipodi:rx="3.75"
       sodipodi:ry="3.75"
       d="m 203.52699,441.12799 c 0,2.07107 -1.67893,3.75 -3.75,3.75 -2.07107,0 -3.75,-1.67893 -3.75,-3.75 0,-2.07107 1.67893,-3.75 3.75,-3.75 2.07107,0 3.75,1.67893 3.75,3.75 z" />
    <ellipse
       style="fill:#000000"
       cx="199.52699"
       cy="394.578"
       rx="3.75"
       ry="3.75"
       id="ellipse110"
       sodipodi:cx="199.52699"
       sodipodi:cy="394.578"
       sodipodi:rx="3.75"
       sodipodi:ry="3.75"
       d="m 203.27699,394.578 c 0,2.07107 -1.67893,3.75 -3.75,3.75 -2.07107,0 -3.75,-1.67893 -3.75,-3.75 0,-2.07106 1.67893,-3.75 3.75,-3.75 2.07107,0 3.75,1.67894 3.75,3.75 z" />
    <ellipse
       style="fill:#000000"
       cx="198.77699"
       cy="343.02802"
       rx="3.75"
       ry="3.75"
       id="ellipse112"
       sodipodi:cx="198.77699"
       sodipodi:cy="343.02802"
       sodipodi:rx="3.75"
       sodipodi:ry="3.75"
       d="m 202.52699,343.02802 c 0,2.07106 -1.67893,3.75 -3.75,3.75 -2.07107,0 -3.75,-1.67894 -3.75,-3.75 0,-2.07107 1.67893,-3.75 3.75,-3.75 2.07107,0 3.75,1.67893 3.75,3.75 z" />
    <ellipse
       style="fill:#000000"
       cx="198.52699"
       cy="298.478"
       rx="3.75"
       ry="3.75"
       id="ellipse114"
       sodipodi:cx="198.52699"
       sodipodi:cy="298.478"
       sodipodi:rx="3.75"
       sodipodi:ry="3.75"
       d="m 202.27699,298.478 c 0,2.07106 -1.67893,3.75 -3.75,3.75 -2.07107,0 -3.75,-1.67894 -3.75,-3.75 0,-2.07107 1.67893,-3.75 3.75,-3.75 2.07107,0 3.75,1.67893 3.75,3.75 z" />
    <ellipse
       style="fill:#000000"
       cx="198.27699"
       cy="250.42799"
       rx="3.75"
       ry="3.75"
       id="ellipse116"
       sodipodi:cx="198.27699"
       sodipodi:cy="250.42799"
       sodipodi:rx="3.75"
       sodipodi:ry="3.75"
       d="m 202.02699,250.42799 c 0,2.07107 -1.67893,3.75 -3.75,3.75 -2.07107,0 -3.75,-1.67893 -3.75,-3.75 0,-2.07106 1.67893,-3.75 3.75,-3.75 2.07107,0 3.75,1.67894 3.75,3.75 z" />
    <ellipse
       style="fill:#000000"
       cx="199.02699"
       cy="201.87801"
       rx="3.75"
       ry="3.75"
       id="ellipse118"
       sodipodi:cx="199.02699"
       sodipodi:cy="201.87801"
       sodipodi:rx="3.75"
       sodipodi:ry="3.75"
       d="m 202.77699,201.87801 c 0,2.07106 -1.67893,3.75 -3.75,3.75 -2.07107,0 -3.75,-1.67894 -3.75,-3.75 0,-2.07107 1.67893,-3.75 3.75,-3.75 2.07107,0 3.75,1.67893 3.75,3.75 z" />
  </g>
  <g
     id="g120"
     transform="translate(-18.668443,-18.919006)">
    <ellipse
       style="fill:#000000"
       cx="296.27802"
       cy="492.62799"
       rx="3.75"
       ry="3.75"
       id="ellipse122"
       sodipodi:cx="296.27802"
       sodipodi:cy="492.62799"
       sodipodi:rx="3.75"
       sodipodi:ry="3.75"
       d="m 300.02802,492.62799 c 0,2.07107 -1.67894,3.75 -3.75,3.75 -2.07107,0 -3.75,-1.67893 -3.75,-3.75 0,-2.07107 1.67893,-3.75 3.75,-3.75 2.07106,0 3.75,1.67893 3.75,3.75 z" />
    <ellipse
       style="fill:#000000"
       cx="296.52802"
       cy="441.578"
       rx="3.75"
       ry="3.75"
       id="ellipse124"
       sodipodi:cx="296.52802"
       sodipodi:cy="441.578"
       sodipodi:rx="3.75"
       sodipodi:ry="3.75"
       d="m 300.27802,441.578 c 0,2.07107 -1.67894,3.75 -3.75,3.75 -2.07107,0 -3.75,-1.67893 -3.75,-3.75 0,-2.07106 1.67893,-3.75 3.75,-3.75 2.07106,0 3.75,1.67894 3.75,3.75 z" />
    <ellipse
       style="fill:#000000"
       cx="296.27802"
       cy="395.02802"
       rx="3.75"
       ry="3.75"
       id="ellipse126"
       sodipodi:cx="296.27802"
       sodipodi:cy="395.02802"
       sodipodi:rx="3.75"
       sodipodi:ry="3.75"
       d="m 300.02802,395.02802 c 0,2.07106 -1.67894,3.75 -3.75,3.75 -2.07107,0 -3.75,-1.67894 -3.75,-3.75 0,-2.07107 1.67893,-3.75 3.75,-3.75 2.07106,0 3.75,1.67893 3.75,3.75 z" />
    <ellipse
       style="fill:#000000"
       cx="295.52802"
       cy="343.478"
       rx="3.75"
       ry="3.75"
       id="ellipse128"
       sodipodi:cx="295.52802"
       sodipodi:cy="343.478"
       sodipodi:rx="3.75"
       sodipodi:ry="3.75"
       d="m 299.27802,343.478 c 0,2.07106 -1.67894,3.75 -3.75,3.75 -2.07107,0 -3.75,-1.67894 -3.75,-3.75 0,-2.07107 1.67893,-3.75 3.75,-3.75 2.07106,0 3.75,1.67893 3.75,3.75 z" />
    <ellipse
       style="fill:#000000"
       cx="295.27802"
       cy="298.92801"
       rx="3.75"
       ry="3.75"
       id="ellipse130"
       sodipodi:cx="295.27802"
       sodipodi:cy="298.92801"
       sodipodi:rx="3.75"
       sodipodi:ry="3.75"
       d="m 299.02802,298.92801 c 0,2.07107 -1.67894,3.75 -3.75,3.75 -2.07107,0 -3.75,-1.67893 -3.75,-3.75 0,-2.07107 1.67893,-3.75 3.75,-3.75 2.07106,0 3.75,1.67893 3.75,3.75 z" />
    <ellipse
       style="fill:#000000"
       cx="295.02802"
       cy="250.87801"
       rx="3.75"
       ry="3.75"
       id="ellipse132"
       sodipodi:cx="295.02802"
       sodipodi:cy="250.87801"
       sodipodi:rx="3.75"
       sodipodi:ry="3.75"
       d="m 298.77802,250.87801 c 0,2.07106 -1.67894,3.75 -3.75,3.75 -2.07107,0 -3.75,-1.67894 -3.75,-3.75 0,-2.07107 1.67893,-3.75 3.75,-3.75 2.07106,0 3.75,1.67893 3.75,3.75 z" />
    <ellipse
       style="fill:#000000"
       cx="295.77802"
       cy="202.328"
       rx="3.75"
       ry="3.75"
       id="ellipse134"
       sodipodi:cx="295.77802"
       sodipodi:cy="202.328"
       sodipodi:rx="3.75"
       sodipodi:ry="3.75"
       d="m 299.52802,202.328 c 0,2.07107 -1.67894,3.75 -3.75,3.75 -2.07107,0 -3.75,-1.67893 -3.75,-3.75 0,-2.07106 1.67893,-3.75 3.75,-3.75 2.07106,0 3.75,1.67894 3.75,3.75 z" />
  </g>
  <g
     id="g136"
     transform="translate(-18.668443,-18.919006)">
    <ellipse
       style="fill:#000000"
       cx="151.94099"
       cy="490.664"
       rx="3.75"
       ry="3.75"
       id="ellipse138"
       sodipodi:cx="151.94099"
       sodipodi:cy="490.664"
       sodipodi:rx="3.75"
       sodipodi:ry="3.75"
       d="m 155.69099,490.664 c 0,2.07107 -1.67893,3.75 -3.75,3.75 -2.07106,0 -3.75,-1.67893 -3.75,-3.75 0,-2.07107 1.67894,-3.75 3.75,-3.75 2.07107,0 3.75,1.67893 3.75,3.75 z" />
    <ellipse
       style="fill:#000000"
       cx="152.19099"
       cy="439.61401"
       rx="3.75"
       ry="3.75"
       id="ellipse140"
       sodipodi:cx="152.19099"
       sodipodi:cy="439.61401"
       sodipodi:rx="3.75"
       sodipodi:ry="3.75"
       d="m 155.94099,439.61401 c 0,2.07107 -1.67893,3.75 -3.75,3.75 -2.07106,0 -3.75,-1.67893 -3.75,-3.75 0,-2.07106 1.67894,-3.75 3.75,-3.75 2.07107,0 3.75,1.67894 3.75,3.75 z" />
    <ellipse
       style="fill:#000000"
       cx="151.94099"
       cy="393.064"
       rx="3.75"
       ry="3.75"
       id="ellipse142"
       sodipodi:cx="151.94099"
       sodipodi:cy="393.064"
       sodipodi:rx="3.75"
       sodipodi:ry="3.75"
       d="m 155.69099,393.064 c 0,2.07106 -1.67893,3.75 -3.75,3.75 -2.07106,0 -3.75,-1.67894 -3.75,-3.75 0,-2.07107 1.67894,-3.75 3.75,-3.75 2.07107,0 3.75,1.67893 3.75,3.75 z" />
    <ellipse
       style="fill:#000000"
       cx="151.19099"
       cy="341.51401"
       rx="3.75"
       ry="3.75"
       id="ellipse144"
       sodipodi:cx="151.19099"
       sodipodi:cy="341.51401"
       sodipodi:rx="3.75"
       sodipodi:ry="3.75"
       d="m 154.94099,341.51401 c 0,2.07107 -1.67893,3.75 -3.75,3.75 -2.07106,0 -3.75,-1.67893 -3.75,-3.75 0,-2.07107 1.67894,-3.75 3.75,-3.75 2.07107,0 3.75,1.67893 3.75,3.75 z" />
    <ellipse
       style="fill:#000000"
       cx="150.94099"
       cy="296.96399"
       rx="3.75"
       ry="3.75"
       id="ellipse146"
       sodipodi:cx="150.94099"
       sodipodi:cy="296.96399"
       sodipodi:rx="3.75"
       sodipodi:ry="3.75"
       d="m 154.69099,296.96399 c 0,2.07107 -1.67893,3.75 -3.75,3.75 -2.07106,0 -3.75,-1.67893 -3.75,-3.75 0,-2.07107 1.67894,-3.75 3.75,-3.75 2.07107,0 3.75,1.67893 3.75,3.75 z" />
    <ellipse
       style="fill:#000000"
       cx="150.69099"
       cy="248.914"
       rx="3.75"
       ry="3.75"
       id="ellipse148"
       sodipodi:cx="150.69099"
       sodipodi:cy="248.914"
       sodipodi:rx="3.75"
       sodipodi:ry="3.75"
       d="m 154.44099,248.914 c 0,2.07107 -1.67893,3.75 -3.75,3.75 -2.07106,0 -3.75,-1.67893 -3.75,-3.75 0,-2.07107 1.67894,-3.75 3.75,-3.75 2.07107,0 3.75,1.67893 3.75,3.75 z" />
    <ellipse
       style="fill:#000000"
       cx="151.44099"
       cy="200.364"
       rx="3.75"
       ry="3.75"
       id="ellipse150"
       sodipodi:cx="151.44099"
       sodipodi:cy="200.364"
       sodipodi:rx="3.75"
       sodipodi:ry="3.75"
       d="m 155.19099,200.364 c 0,2.07107 -1.67893,3.75 -3.75,3.75 -2.07106,0 -3.75,-1.67893 -3.75,-3.75 0,-2.07107 1.67894,-3.75 3.75,-3.75 2.07107,0 3.75,1.67893 3.75,3.75 z" />
  </g>
  <g
     id="g152"
     transform="translate(-18.668443,-18.919006)">
    <ellipse
       style="fill:#000000"
       cx="249.778"
       cy="492.02802"
       rx="3.75"
       ry="3.75"
       id="ellipse154"
       sodipodi:cx="249.778"
       sodipodi:cy="492.02802"
       sodipodi:rx="3.75"
       sodipodi:ry="3.75"
       d="m 253.528,492.02802 c 0,2.07106 -1.67893,3.75 -3.75,3.75 -2.07107,0 -3.75,-1.67894 -3.75,-3.75 0,-2.07107 1.67893,-3.75 3.75,-3.75 2.07107,0 3.75,1.67893 3.75,3.75 z" />
    <ellipse
       style="fill:#000000"
       cx="250.028"
       cy="440.978"
       rx="3.75"
       ry="3.75"
       id="ellipse156"
       sodipodi:cx="250.028"
       sodipodi:cy="440.978"
       sodipodi:rx="3.75"
       sodipodi:ry="3.75"
       d="m 253.778,440.978 c 0,2.07106 -1.67893,3.75 -3.75,3.75 -2.07107,0 -3.75,-1.67894 -3.75,-3.75 0,-2.07107 1.67893,-3.75 3.75,-3.75 2.07107,0 3.75,1.67893 3.75,3.75 z" />
    <ellipse
       style="fill:#000000"
       cx="249.778"
       cy="394.42801"
       rx="3.75"
       ry="3.75"
       id="ellipse158"
       sodipodi:cx="249.778"
       sodipodi:cy="394.42801"
       sodipodi:rx="3.75"
       sodipodi:ry="3.75"
       d="m 253.528,394.42801 c 0,2.07107 -1.67893,3.75 -3.75,3.75 -2.07107,0 -3.75,-1.67893 -3.75,-3.75 0,-2.07107 1.67893,-3.75 3.75,-3.75 2.07107,0 3.75,1.67893 3.75,3.75 z" />
    <ellipse
       style="fill:#000000"
       cx="249.028"
       cy="342.87799"
       rx="3.75"
       ry="3.75"
       id="ellipse160"
       sodipodi:cx="249.028"
       sodipodi:cy="342.87799"
       sodipodi:rx="3.75"
       sodipodi:ry="3.75"
       d="m 252.778,342.87799 c 0,2.07107 -1.67893,3.75 -3.75,3.75 -2.07107,0 -3.75,-1.67893 -3.75,-3.75 0,-2.07107 1.67893,-3.75 3.75,-3.75 2.07107,0 3.75,1.67893 3.75,3.75 z" />
    <ellipse
       style="fill:#000000"
       cx="248.778"
       cy="298.328"
       rx="3.75"
       ry="3.75"
       id="ellipse162"
       sodipodi:cx="248.778"
       sodipodi:cy="298.328"
       sodipodi:rx="3.75"
       sodipodi:ry="3.75"
       d="m 252.528,298.328 c 0,2.07107 -1.67893,3.75 -3.75,3.75 -2.07107,0 -3.75,-1.67893 -3.75,-3.75 0,-2.07106 1.67893,-3.75 3.75,-3.75 2.07107,0 3.75,1.67894 3.75,3.75 z" />
    <ellipse
       style="fill:#000000"
       cx="248.528"
       cy="250.278"
       rx="3.75"
       ry="3.75"
       id="ellipse164"
       sodipodi:cx="248.528"
       sodipodi:cy="250.278"
       sodipodi:rx="3.75"
       sodipodi:ry="3.75"
       d="m 252.278,250.278 c 0,2.07107 -1.67893,3.75 -3.75,3.75 -2.07107,0 -3.75,-1.67893 -3.75,-3.75 0,-2.07107 1.67893,-3.75 3.75,-3.75 2.07107,0 3.75,1.67893 3.75,3.75 z" />
    <ellipse
       style="fill:#000000"
       cx="249.278"
       cy="201.728"
       rx="3.75"
       ry="3.75"
       id="ellipse166"
       sodipodi:cx="249.278"
       sodipodi:cy="201.728"
       sodipodi:rx="3.75"
       sodipodi:ry="3.75"
       d="m 253.028,201.728 c 0,2.07106 -1.67893,3.75 -3.75,3.75 -2.07107,0 -3.75,-1.67894 -3.75,-3.75 0,-2.07107 1.67893,-3.75 3.75,-3.75 2.07107,0 3.75,1.67893 3.75,3.75 z" />
  </g>
  <g
     id="g168"
     transform="translate(-18.668443,-18.919006)">
    <ellipse
       style="fill:#000000"
       cx="314.02802"
       cy="479.67801"
       rx="3.75"
       ry="3.75"
       id="ellipse170"
       sodipodi:cx="314.02802"
       sodipodi:cy="479.67801"
       sodipodi:rx="3.75"
       sodipodi:ry="3.75"
       d="m 317.77802,479.67801 c 0,2.07107 -1.67894,3.75 -3.75,3.75 -2.07107,0 -3.75,-1.67893 -3.75,-3.75 0,-2.07107 1.67893,-3.75 3.75,-3.75 2.07106,0 3.75,1.67893 3.75,3.75 z" />
    <ellipse
       style="fill:#000000"
       cx="314.27802"
       cy="428.62799"
       rx="3.75"
       ry="3.75"
       id="ellipse172"
       sodipodi:cx="314.27802"
       sodipodi:cy="428.62799"
       sodipodi:rx="3.75"
       sodipodi:ry="3.75"
       d="m 318.02802,428.62799 c 0,2.07107 -1.67894,3.75 -3.75,3.75 -2.07107,0 -3.75,-1.67893 -3.75,-3.75 0,-2.07107 1.67893,-3.75 3.75,-3.75 2.07106,0 3.75,1.67893 3.75,3.75 z" />
    <ellipse
       style="fill:#000000"
       cx="314.02802"
       cy="382.078"
       rx="3.75"
       ry="3.75"
       id="ellipse174"
       sodipodi:cx="314.02802"
       sodipodi:cy="382.078"
       sodipodi:rx="3.75"
       sodipodi:ry="3.75"
       d="m 317.77802,382.078 c 0,2.07107 -1.67894,3.75 -3.75,3.75 -2.07107,0 -3.75,-1.67893 -3.75,-3.75 0,-2.07106 1.67893,-3.75 3.75,-3.75 2.07106,0 3.75,1.67894 3.75,3.75 z" />
    <ellipse
       style="fill:#000000"
       cx="313.27802"
       cy="330.52802"
       rx="3.75"
       ry="3.75"
       id="ellipse176"
       sodipodi:cx="313.27802"
       sodipodi:cy="330.52802"
       sodipodi:rx="3.75"
       sodipodi:ry="3.75"
       d="m 317.02802,330.52802 c 0,2.07106 -1.67894,3.75 -3.75,3.75 -2.07107,0 -3.75,-1.67894 -3.75,-3.75 0,-2.07107 1.67893,-3.75 3.75,-3.75 2.07106,0 3.75,1.67893 3.75,3.75 z" />
    <ellipse
       style="fill:#000000"
       cx="313.02802"
       cy="285.978"
       rx="3.75"
       ry="3.75"
       id="ellipse178"
       sodipodi:cx="313.02802"
       sodipodi:cy="285.978"
       sodipodi:rx="3.75"
       sodipodi:ry="3.75"
       d="m 316.77802,285.978 c 0,2.07106 -1.67894,3.75 -3.75,3.75 -2.07107,0 -3.75,-1.67894 -3.75,-3.75 0,-2.07107 1.67893,-3.75 3.75,-3.75 2.07106,0 3.75,1.67893 3.75,3.75 z" />
    <ellipse
       style="fill:#000000"
       cx="312.77802"
       cy="237.92799"
       rx="3.75"
       ry="3.75"
       id="ellipse180"
       sodipodi:cx="312.77802"
       sodipodi:cy="237.92799"
       sodipodi:rx="3.75"
       sodipodi:ry="3.75"
       d="m 316.52802,237.92799 c 0,2.07107 -1.67894,3.75 -3.75,3.75 -2.07107,0 -3.75,-1.67893 -3.75,-3.75 0,-2.07106 1.67893,-3.75 3.75,-3.75 2.07106,0 3.75,1.67894 3.75,3.75 z" />
    <ellipse
       style="fill:#000000"
       cx="313.52802"
       cy="189.37801"
       rx="3.75"
       ry="3.75"
       id="ellipse182"
       sodipodi:cx="313.52802"
       sodipodi:cy="189.37801"
       sodipodi:rx="3.75"
       sodipodi:ry="3.75"
       d="m 317.27802,189.37801 c 0,2.07106 -1.67894,3.75 -3.75,3.75 -2.07107,0 -3.75,-1.67894 -3.75,-3.75 0,-2.07107 1.67893,-3.75 3.75,-3.75 2.07106,0 3.75,1.67893 3.75,3.75 z" />
  </g>
  <g
     id="g184"
     transform="translate(-18.668443,-18.919006)">
    <ellipse
       style="fill:#000000"
       cx="332.27802"
       cy="469.12799"
       rx="3.75"
       ry="3.75"
       id="ellipse186"
       sodipodi:cx="332.27802"
       sodipodi:cy="469.12799"
       sodipodi:rx="3.75"
       sodipodi:ry="3.75"
       d="m 336.02802,469.12799 c 0,2.07107 -1.67894,3.75 -3.75,3.75 -2.07107,0 -3.75,-1.67893 -3.75,-3.75 0,-2.07107 1.67893,-3.75 3.75,-3.75 2.07106,0 3.75,1.67893 3.75,3.75 z" />
    <ellipse
       style="fill:#000000"
       cx="332.52802"
       cy="418.078"
       rx="3.75"
       ry="3.75"
       id="ellipse188"
       sodipodi:cx="332.52802"
       sodipodi:cy="418.078"
       sodipodi:rx="3.75"
       sodipodi:ry="3.75"
       d="m 336.27802,418.078 c 0,2.07107 -1.67894,3.75 -3.75,3.75 -2.07107,0 -3.75,-1.67893 -3.75,-3.75 0,-2.07106 1.67893,-3.75 3.75,-3.75 2.07106,0 3.75,1.67894 3.75,3.75 z" />
    <ellipse
       style="fill:#000000"
       cx="332.27802"
       cy="371.52802"
       rx="3.75"
       ry="3.75"
       id="ellipse190"
       sodipodi:cx="332.27802"
       sodipodi:cy="371.52802"
       sodipodi:rx="3.75"
       sodipodi:ry="3.75"
       d="m 336.02802,371.52802 c 0,2.07106 -1.67894,3.75 -3.75,3.75 -2.07107,0 -3.75,-1.67894 -3.75,-3.75 0,-2.07107 1.67893,-3.75 3.75,-3.75 2.07106,0 3.75,1.67893 3.75,3.75 z" />
    <ellipse
       style="fill:#000000"
       cx="331.52802"
       cy="319.978"
       rx="3.75"
       ry="3.75"
       id="ellipse192"
       sodipodi:cx="331.52802"
       sodipodi:cy="319.978"
       sodipodi:rx="3.75"
       sodipodi:ry="3.75"
       d="m 335.27802,319.978 c 0,2.07106 -1.67894,3.75 -3.75,3.75 -2.07107,0 -3.75,-1.67894 -3.75,-3.75 0,-2.07107 1.67893,-3.75 3.75,-3.75 2.07106,0 3.75,1.67893 3.75,3.75 z" />
    <ellipse
       style="fill:#000000"
       cx="331.27802"
       cy="275.42801"
       rx="3.75"
       ry="3.75"
       id="ellipse194"
       sodipodi:cx="331.27802"
       sodipodi:cy="275.42801"
       sodipodi:rx="3.75"
       sodipodi:ry="3.75"
       d="m 335.02802,275.42801 c 0,2.07107 -1.67894,3.75 -3.75,3.75 -2.07107,0 -3.75,-1.67893 -3.75,-3.75 0,-2.07107 1.67893,-3.75 3.75,-3.75 2.07106,0 3.75,1.67893 3.75,3.75 z" />
    <ellipse
       style="fill:#000000"
       cx="331.02802"
       cy="227.37801"
       rx="3.75"
       ry="3.75"
       id="ellipse196"
       sodipodi:cx="331.02802"
       sodipodi:cy="227.37801"
       sodipodi:rx="3.75"
       sodipodi:ry="3.75"
       d="m 334.77802,227.37801 c 0,2.07106 -1.67894,3.75 -3.75,3.75 -2.07107,0 -3.75,-1.67894 -3.75,-3.75 0,-2.07107 1.67893,-3.75 3.75,-3.75 2.07106,0 3.75,1.67893 3.75,3.75 z" />
    <ellipse
       style="fill:#000000"
       cx="331.77802"
       cy="178.828"
       rx="3.75"
       ry="3.75"
       id="ellipse198"
       sodipodi:cx="331.77802"
       sodipodi:cy="178.828"
       sodipodi:rx="3.75"
       sodipodi:ry="3.75"
       d="m 335.52802,178.828 c 0,2.07107 -1.67894,3.75 -3.75,3.75 -2.07107,0 -3.75,-1.67893 -3.75,-3.75 0,-2.07106 1.67893,-3.75 3.75,-3.75 2.07106,0 3.75,1.67894 3.75,3.75 z" />
  </g>
  <ellipse
     style="fill:#000000"
     cx="182.27699"
     cy="177.87801"
     rx="3.75"
     ry="3.75"
     id="ellipse200"
     sodipodi:cx="182.27699"
     sodipodi:cy="177.87801"
     sodipodi:rx="3.75"
     sodipodi:ry="3.75"
     transform="translate(-18.668443,-18.919006)" />
  <ellipse
     style="fill:#000000"
     cx="231.02699"
     cy="178.328"
     rx="3.75"
     ry="3.75"
     id="ellipse202"
     sodipodi:cx="231.02699"
     sodipodi:cy="178.328"
     sodipodi:rx="3.75"
     sodipodi:ry="3.75"
     transform="translate(-18.668443,-18.919006)" />
  <ellipse
     style="fill:#000000"
     cx="279.27802"
     cy="178.278"
     rx="3.75"
     ry="3.75"
     id="ellipse204"
     sodipodi:cx="279.27802"
     sodipodi:cy="178.278"
     sodipodi:rx="3.75"
     sodipodi:ry="3.75"
     transform="translate(-18.668443,-18.919006)" />
  <ellipse
     style="fill:#000000"
     cx="119.027"
     cy="188.228"
     rx="3.75"
     ry="3.75"
     id="ellipse206"
     sodipodi:cx="119.027"
     sodipodi:cy="188.228"
     sodipodi:rx="3.75"
     sodipodi:ry="3.75"
     transform="translate(-18.668443,-18.919006)" />
  <ellipse
     style="fill:#000000"
     cx="167.27699"
     cy="190.17799"
     rx="3.75"
     ry="3.75"
     id="ellipse208"
     sodipodi:cx="167.27699"
     sodipodi:cy="190.17799"
     sodipodi:rx="3.75"
     sodipodi:ry="3.75"
     transform="translate(-18.668443,-18.919006)" />
  <ellipse
     style="fill:#000000"
     cx="214.02699"
     cy="191.12801"
     rx="3.75"
     ry="3.75"
     id="ellipse210"
     sodipodi:cx="214.02699"
     sodipodi:cy="191.12801"
     sodipodi:rx="3.75"
     sodipodi:ry="3.75"
     transform="translate(-18.668443,-18.919006)" />
  <ellipse
     style="fill:#000000"
     cx="264.27802"
     cy="189.578"
     rx="3.75"
     ry="3.75"
     id="ellipse212"
     sodipodi:cx="264.27802"
     sodipodi:cy="189.578"
     sodipodi:rx="3.75"
     sodipodi:ry="3.75"
     transform="translate(-18.668443,-18.919006)" />
  <text
     style="font-size:12.80000019px;font-style:normal;font-weight:normal;text-anchor:start;fill:#000000;font-family:sanserif"
     x="178.83656"
     y="493.52301"
     id="text214">
    <tspan
       x="178.83656"
       y="493.52301"
       id="tspan216">5</tspan>
  </text>
  <text
     style="font-size:12.80000019px;font-style:normal;font-weight:normal;text-anchor:start;fill:#000000;font-family:sanserif"
     x="186.42755"
     y="369.117"
     id="text218">
    <tspan
       x="186.42755"
       y="369.117"
       id="tspan220">6</tspan>
  </text>
  <text
     style="font-size:12.80000019px;font-style:normal;font-weight:normal;text-anchor:start;fill:#000000;font-family:sanserif"
     x="187.69356"
     y="273.30099"
     id="text222">
    <tspan
       x="187.69356"
       y="273.30099"
       id="tspan224">7</tspan>
  </text>
  <text
     style="font-size:12.80000019px;font-style:normal;font-weight:normal;text-anchor:start;fill:#000000;font-family:sanserif"
     x="185.48956"
     y="197.59299"
     id="text226">
    <tspan
       x="185.48956"
       y="197.59299"
       id="tspan228">8</tspan>
  </text>
  <text
     style="font-size:12.80000019px;font-style:normal;font-weight:normal;text-anchor:start;fill:#000000;font-family:sanserif"
     x="59.147362"
     y="424.979"
     id="text230">
    <tspan
       x="59.147362"
       y="424.979"
       id="tspan232">17</tspan>
  </text>
  <text
     style="font-size:12.80000019px;font-style:normal;font-weight:normal;text-anchor:start;fill:#000000;font-family:sanserif"
     x="58.793755"
     y="328.45898"
     id="text234">
    <tspan
       x="58.793755"
       y="328.45898"
       id="tspan236">18</tspan>
  </text>
  <text
     style="font-size:12.80000019px;font-style:normal;font-weight:normal;text-anchor:start;fill:#000000;font-family:sanserif"
     x="60.561562"
     y="235.47299"
     id="text238">
    <tspan
       x="60.561562"
       y="235.47299"
       id="tspan240">19</tspan>
  </text>
  <text
     style="font-size:12.80000019px;font-style:normal;font-weight:normal;text-anchor:start;fill:#000000;font-family:sanserif"
     x="188.90157"
     y="427.453"
     id="text242">
    <tspan
       x="188.90157"
       y="427.453"
       id="tspan244">20</tspan>
  </text>
  <text
     style="font-size:12.80000019px;font-style:normal;font-weight:normal;text-anchor:start;fill:#000000;font-family:sanserif"
     x="188.54756"
     y="328.811"
     id="text246">
    <tspan
       x="188.54756"
       y="328.811"
       id="tspan248">21</tspan>
  </text>
  <text
     style="font-size:12.80000019px;font-style:normal;font-weight:normal;text-anchor:start;fill:#000000;font-family:sanserif"
     x="186.07356"
     y="235.827"
     id="text250">
    <tspan
       x="186.07356"
       y="235.827"
       id="tspan252">22</tspan>
  </text>
  <text
     style="font-size:12.80000019px;font-style:normal;font-weight:normal;text-anchor:start;fill:#000000;font-family:sanserif"
     x="121.37256"
     y="497.81097"
     id="text254">
    <tspan
       x="121.37256"
       y="497.81097"
       id="tspan256">29</tspan>
  </text>
  <text
     style="font-size:12.80000019px;font-style:normal;font-weight:normal;text-anchor:start;fill:#000000;font-family:sanserif"
     x="119.60455"
     y="394.21899"
     id="text258">
    <tspan
       x="119.60455"
       y="394.21899"
       id="tspan260">30</tspan>
  </text>
  <text
     style="font-size:12.80000019px;font-style:normal;font-weight:normal;text-anchor:start;fill:#000000;font-family:sanserif"
     x="122.07956"
     y="299.11301"
     id="text262">
    <tspan
       x="122.07956"
       y="299.11301"
       id="tspan264">31</tspan>
  </text>
  <text
     style="font-size:12.80000019px;font-style:normal;font-weight:normal;text-anchor:start;fill:#000000;font-family:sanserif"
     x="123.49356"
     y="200.825"
     id="text266">
    <tspan
       x="123.49356"
       y="200.825"
       id="tspan268">32</tspan>
  </text>
  <text
     style="font-size:12.80000019px;font-style:normal;font-weight:normal;text-anchor:start;fill:#000000;font-family:sanserif"
     x="206.22556"
     y="149.207"
     id="text270">
    <tspan
       x="206.22556"
       y="149.207"
       id="tspan272">12</tspan>
  </text>
  <text
     style="font-size:12.80000019px;font-style:normal;font-weight:normal;text-anchor:start;fill:#000000;font-family:sanserif"
     x="108.29156"
     y="149.56"
     id="text274">
    <tspan
       x="108.29156"
       y="149.56"
       id="tspan276">16</tspan>
  </text>
  <text
     style="font-size:12.80000019px;font-style:normal;font-weight:normal;text-anchor:start;fill:#000000;font-family:sanserif"
     x="156.72856"
     y="148.5"
     id="text278">
    <tspan
       x="156.72856"
       y="148.5"
       id="tspan280">40</tspan>
  </text>
  <text
     style="font-size:12.80000019px;font-style:normal;font-weight:normal;text-anchor:start;fill:#000000;font-family:sanserif"
     x="77.885757"
     y="161.58099"
     id="text282">
    <tspan
       x="77.885757"
       y="161.58099"
       id="tspan284">44</tspan>
  </text>
  <text
     style="font-size:12.80000019px;font-style:normal;font-weight:normal;text-anchor:start;fill:#000000;font-family:sanserif"
     x="204.10356"
     y="176.784"
     id="text286">
    <tspan
       x="204.10356"
       y="176.784"
       id="tspan288">36</tspan>
  </text>
  <text
     style="font-size:12.80000019px;font-style:normal;font-weight:normal;text-anchor:start;fill:#000000;font-family:sanserif"
     x="118.19055"
     y="438.767"
     id="text290">
    <tspan
       x="118.19055"
       y="438.767"
       id="tspan292">45</tspan>
  </text>
  <text
     style="font-size:12.80000019px;font-style:normal;font-weight:normal;text-anchor:start;fill:#000000;font-family:sanserif"
     x="121.37256"
     y="342.95499"
     id="text294">
    <tspan
       x="121.37256"
       y="342.95499"
       id="tspan296">46</tspan>
  </text>
  <text
     style="font-size:12.80000019px;font-style:normal;font-weight:normal;text-anchor:start;fill:#000000;font-family:sanserif"
     x="124.55457"
     y="249.263"
     id="text298">
    <tspan
       x="124.55457"
       y="249.263"
       id="tspan300">47</tspan>
  </text>
  <text
     style="font-size:12.80000019px;font-style:normal;font-weight:normal;text-anchor:start;fill:#000000;font-family:sanserif"
     x="153.89955"
     y="176.077"
     id="text302">
    <tspan
       x="153.89955"
       y="176.077"
       id="tspan304">60</tspan>
  </text>
  <text
     style="font-size:12.80000019px;font-style:normal;font-weight:normal;text-anchor:start;fill:#000000;font-family:sanserif"
     x="272.12753"
     y="496.047"
     id="text306">
    <tspan
       x="272.12753"
       y="496.047"
       id="tspan308">64</tspan>
  </text>
  <text
     style="font-size:12.80000019px;font-style:normal;font-weight:normal;text-anchor:start;fill:#000000;font-family:sanserif"
     x="255.65157"
     y="368.20099"
     id="text310">
    <tspan
       x="255.65157"
       y="368.20099"
       id="tspan312">65</tspan>
  </text>
  <text
     style="font-size:12.80000019px;font-style:normal;font-weight:normal;text-anchor:start;fill:#000000;font-family:sanserif"
     x="253.88756"
     y="269.15698"
     id="text314">
    <tspan
       x="253.88756"
       y="269.15698"
       id="tspan316">66</tspan>
  </text>
  <text
     style="font-size:12.80000019px;font-style:normal;font-weight:normal;text-anchor:start;fill:#000000;font-family:sanserif"
     x="256.64154"
     y="195.95099"
     id="text318">
    <tspan
       x="256.64154"
       y="195.95099"
       id="tspan320">67</tspan>
  </text>
  <text
     style="font-size:12.80000019px;font-style:normal;font-weight:normal;text-anchor:start;fill:#000000;font-family:sanserif"
     x="321.48355"
     y="453.479"
     id="text322">
    <tspan
       x="321.48355"
       y="453.479"
       id="tspan324">68</tspan>
  </text>
  <text
     style="font-size:12.80000019px;font-style:normal;font-weight:normal;text-anchor:start;fill:#000000;font-family:sanserif"
     x="324.09955"
     y="353.91699"
     id="text326">
    <tspan
       x="324.09955"
       y="353.91699"
       id="tspan328">69</tspan>
  </text>
  <text
     style="font-size:12.80000019px;font-style:normal;font-weight:normal;text-anchor:start;fill:#000000;font-family:sanserif"
     x="323.88754"
     y="260.72101"
     id="text330">
    <tspan
       x="323.88754"
       y="260.72101"
       id="tspan332">70</tspan>
  </text>
  <text
     style="font-size:12.80000019px;font-style:normal;font-weight:normal;text-anchor:start;fill:#000000;font-family:sanserif"
     x="320.84753"
     y="161.868"
     id="text334">
    <tspan
       x="320.84753"
       y="161.868"
       id="tspan336">71</tspan>
  </text>
  <text
     style="font-size:12.80000019px;font-style:normal;font-weight:normal;text-anchor:start;fill:#000000;font-family:sanserif"
     x="253.45955"
     y="425.05298"
     id="text338">
    <tspan
       x="253.45955"
       y="425.05298"
       id="tspan340">72</tspan>
  </text>
  <text
     style="font-size:12.80000019px;font-style:normal;font-weight:normal;text-anchor:start;fill:#000000;font-family:sanserif"
     x="321.83755"
     y="402.56699"
     id="text342">
    <tspan
       x="321.83755"
       y="402.56699"
       id="tspan344">75</tspan>
  </text>
  <text
     style="font-size:12.80000019px;font-style:normal;font-weight:normal;text-anchor:start;fill:#000000;font-family:sanserif"
     x="227.57956"
     y="495.539"
     id="text346">
    <tspan
       x="227.57956"
       y="495.539"
       id="tspan348">78</tspan>
  </text>
  <text
     style="font-size:12.80000019px;font-style:normal;font-weight:normal;text-anchor:start;fill:#000000;font-family:sanserif"
     x="324.24155"
     y="307.591"
     id="text350">
    <tspan
       x="324.24155"
       y="307.591"
       id="tspan352">76</tspan>
  </text>
  <text
     style="font-size:12.80000019px;font-style:normal;font-weight:normal;text-anchor:start;fill:#000000;font-family:sanserif"
     x="321.90753"
     y="213.687"
     id="text354">
    <tspan
       x="321.90753"
       y="213.687"
       id="tspan356">77</tspan>
  </text>
  <text
     style="font-size:12.80000019px;font-style:normal;font-weight:normal;text-anchor:start;fill:#000000;font-family:sanserif"
     x="220.57956"
     y="394.84698"
     id="text358">
    <tspan
       x="220.57956"
       y="394.84698"
       id="tspan360">79</tspan>
  </text>
  <text
     style="font-size:12.80000019px;font-style:normal;font-weight:normal;text-anchor:start;fill:#000000;font-family:sanserif"
     x="223.19556"
     y="299.52899"
     id="text362">
    <tspan
       x="223.19556"
       y="299.52899"
       id="tspan364">80</tspan>
  </text>
  <text
     style="font-size:12.80000019px;font-style:normal;font-weight:normal;text-anchor:start;fill:#000000;font-family:sanserif"
     x="223.69156"
     y="199.26099"
     id="text366">
    <tspan
       x="223.69156"
       y="199.26099"
       id="tspan368">81</tspan>
  </text>
  <text
     style="font-size:12.80000019px;font-style:normal;font-weight:normal;text-anchor:start;fill:#000000;font-family:sanserif"
     x="300.55353"
     y="480.83099"
     id="text370">
    <tspan
       x="300.55353"
       y="480.83099"
       id="tspan372">82</tspan>
  </text>
  <text
     style="font-size:12.80000019px;font-style:normal;font-weight:normal;text-anchor:start;fill:#000000;font-family:sanserif"
     x="287.61356"
     y="350.86499"
     id="text374">
    <tspan
       x="287.61356"
       y="350.86499"
       id="tspan376">83</tspan>
  </text>
  <text
     style="font-size:12.80000019px;font-style:normal;font-weight:normal;text-anchor:start;fill:#000000;font-family:sanserif"
     x="286.69354"
     y="256.255"
     id="text378">
    <tspan
       x="286.69354"
       y="256.255"
       id="tspan380">84</tspan>
  </text>
  <text
     style="font-size:12.80000019px;font-style:normal;font-weight:normal;text-anchor:start;fill:#000000;font-family:sanserif"
     x="292.13956"
     y="189.92699"
     id="text382">
    <tspan
       x="292.13956"
       y="189.92699"
       id="tspan384">85</tspan>
  </text>
  <text
     style="font-size:12.80000019px;font-style:normal;font-weight:normal;text-anchor:start;fill:#000000;font-family:sanserif"
     x="222.29756"
     y="441.19299"
     id="text386">
    <tspan
       x="222.29756"
       y="441.19299"
       id="tspan388">90</tspan>
  </text>
  <text
     style="font-size:12.80000019px;font-style:normal;font-weight:normal;text-anchor:start;fill:#000000;font-family:sanserif"
     x="221.80156"
     y="340.05701"
     id="text390">
    <tspan
       x="221.80156"
       y="340.05701"
       id="tspan392">91</tspan>
  </text>
  <text
     style="font-size:12.80000019px;font-style:normal;font-weight:normal;text-anchor:start;fill:#000000;font-family:sanserif"
     x="221.87357"
     y="249.849"
     id="text394">
    <tspan
       x="221.87357"
       y="249.849"
       id="tspan396">92</tspan>
  </text>
  <text
     style="font-size:12.80000019px;font-style:normal;font-weight:normal;text-anchor:start;fill:#000000;font-family:sanserif"
     x="290.24954"
     y="428.18298"
     id="text398">
    <tspan
       x="290.24954"
       y="428.18298"
       id="tspan400">93</tspan>
  </text>
  <text
     style="font-size:12.80000019px;font-style:normal;font-weight:normal;text-anchor:start;fill:#000000;font-family:sanserif"
     x="256.23755"
     y="149.86499"
     id="text402">
    <tspan
       x="256.23755"
       y="149.86499"
       id="tspan404">89</tspan>
  </text>
  <text
     style="font-size:12.80000019px;font-style:normal;font-weight:normal;text-anchor:start;fill:#000000;font-family:sanserif"
     x="250.43956"
     y="174.472"
     id="text406">
    <tspan
       x="250.43956"
       y="174.472"
       id="tspan408">102</tspan>
  </text>
  <text
     style="font-size:12.80000019px;font-style:normal;font-weight:normal;text-anchor:start;fill:#000000;font-family:sanserif"
     x="285.93753"
     y="301.89301"
     id="text410">
    <tspan
       x="285.93753"
       y="301.89301"
       id="tspan412">94</tspan>
  </text>
  <text
     style="font-size:12.80000019px;font-style:normal;font-weight:normal;text-anchor:start;fill:#000000;font-family:sanserif"
     x="286.43155"
     y="211.52499"
     id="text414">
    <tspan
       x="286.43155"
       y="211.52499"
       id="tspan416">95</tspan>
  </text>
  <text
     style="font-size:12.80000019px;font-style:normal;font-weight:normal;text-anchor:start;fill:#000000;font-family:sanserif"
     x="256.52155"
     y="326.92499"
     id="text418">
    <tspan
       x="256.52155"
       y="326.92499"
       id="tspan420">73</tspan>
  </text>
  <text
     style="font-size:12.80000019px;font-style:normal;font-weight:normal;text-anchor:start;fill:#000000;font-family:sanserif"
     x="254.18755"
     y="232.31299"
     id="text422">
    <tspan
       x="254.18755"
       y="232.31299"
       id="tspan424">74</tspan>
  </text>
</svg>
